<svg width="1200" height="675" xmlns="http://www.w3.org/2000/svg">
  <rect width="1200" height="675" fill="#161616"/>
  <rect x="0" y="0" width="220" height="675" rx="0" fill="#111111"/>
  <rect x="20" y="30" width="180" height="20" rx="0" fill="#C4A882" opacity="0.3"/>
  <rect x="20" y="80" width="160" height="14" rx="0" fill="#2A2A2A"/>
  <rect x="20" y="110" width="160" height="14" rx="0" fill="#1E1E1E"/>
  <rect x="20" y="140" width="160" height="14" rx="0" fill="#1E1E1E"/>
  <rect x="20" y="170" width="160" height="14" rx="0" fill="#1E1E1E"/>
  <rect x="20" y="200" width="160" height="14" rx="0" fill="#1E1E1E"/>
  <rect x="240" y="30" width="940" height="50" rx="0" fill="#1E1E1E"/>
  <rect x="260" y="45" width="200" height="20" rx="0" fill="#252525"/>
  <rect x="1040" y="45" width="120" height="20" rx="0" fill="#C4A882"/>
  <rect x="240" y="100" width="300" height="140" rx="0" fill="#1E1E1E"/>
  <rect x="260" y="120" width="100" height="12" rx="0" fill="#8A8A85" opacity="0.3"/>
  <rect x="260" y="150" width="150" height="30" rx="0" fill="#F5F5F0" opacity="0.1"/>
  <rect x="260" y="200" width="80" height="20" rx="0" fill="#C4A882" opacity="0.2"/>
  <rect x="560" y="100" width="300" height="140" rx="0" fill="#1E1E1E"/>
  <rect x="580" y="120" width="100" height="12" rx="0" fill="#8A8A85" opacity="0.3"/>
  <rect x="580" y="150" width="150" height="30" rx="0" fill="#F5F5F0" opacity="0.1"/>
  <rect x="880" y="100" width="300" height="140" rx="0" fill="#1E1E1E"/>
  <rect x="900" y="120" width="100" height="12" rx="0" fill="#8A8A85" opacity="0.3"/>
  <rect x="900" y="150" width="150" height="30" rx="0" fill="#F5F5F0" opacity="0.1"/>
  <rect x="240" y="260" width="940" height="380" rx="0" fill="#1E1E1E"/>
  <rect x="260" y="280" width="900" height="30" rx="0" fill="#252525"/>
  <rect x="260" y="320" width="900" height="1" fill="#2A2A2A"/>
  <rect x="260" y="340" width="900" height="30" rx="0" fill="#1A1A1A"/>
  <rect x="260" y="380" width="900" height="1" fill="#2A2A2A"/>
  <rect x="260" y="400" width="900" height="30" rx="0" fill="#161616"/>
  <rect x="260" y="440" width="900" height="1" fill="#2A2A2A"/>
  <rect x="260" y="460" width="900" height="30" rx="0" fill="#1A1A1A"/>
  <rect x="260" y="500" width="900" height="1" fill="#2A2A2A"/>
  <rect x="260" y="520" width="900" height="30" rx="0" fill="#161616"/>
  <rect x="260" y="560" width="900" height="1" fill="#2A2A2A"/>
  <rect x="260" y="580" width="900" height="30" rx="0" fill="#1A1A1A"/>
  <text x="700" y="660" text-anchor="middle" fill="#8A8A85" font-family="monospace" font-size="14" opacity="0.6">BaseLine — Operations Dashboard</text>
</svg>
