<svg width="1200" height="675" xmlns="http://www.w3.org/2000/svg">
  <rect width="1200" height="675" fill="#161616"/>
  <rect x="40" y="30" width="1120" height="50" rx="0" fill="#1E1E1E"/>
  <rect x="60" y="45" width="100" height="20" rx="0" fill="#C4A882" opacity="0.4"/>
  <rect x="900" y="45" width="40" height="20" rx="0" fill="#2A2A2A"/>
  <rect x="950" y="45" width="40" height="20" rx="0" fill="#2A2A2A"/>
  <rect x="1050" y="45" width="60" height="20" rx="0" fill="#2A2A2A"/>
  <rect x="40" y="100" width="370" height="500" rx="0" fill="#1E1E1E"/>
  <rect x="60" y="120" width="330" height="380" rx="0" fill="#252525"/>
  <rect x="160" y="280" width="130" height="40" fill="#C4A882" opacity="0.15"/>
  <rect x="60" y="520" width="200" height="14" rx="0" fill="#F5F5F0" opacity="0.1"/>
  <rect x="60" y="545" width="100" height="12" rx="0" fill="#8A8A85" opacity="0.3"/>
  <rect x="60" y="570" width="80" height="20" rx="0" fill="#C4A882" opacity="0.3"/>
  <rect x="425" y="100" width="370" height="500" rx="0" fill="#1E1E1E"/>
  <rect x="445" y="120" width="330" height="380" rx="0" fill="#252525"/>
  <rect x="445" y="520" width="200" height="14" rx="0" fill="#F5F5F0" opacity="0.1"/>
  <rect x="445" y="545" width="120" height="12" rx="0" fill="#8A8A85" opacity="0.3"/>
  <rect x="445" y="570" width="80" height="20" rx="0" fill="#C4A882" opacity="0.3"/>
  <rect x="810" y="100" width="370" height="500" rx="0" fill="#1E1E1E"/>
  <rect x="830" y="120" width="330" height="380" rx="0" fill="#252525"/>
  <rect x="830" y="520" width="200" height="14" rx="0" fill="#F5F5F0" opacity="0.1"/>
  <rect x="830" y="545" width="110" height="12" rx="0" fill="#8A8A85" opacity="0.3"/>
  <rect x="830" y="570" width="80" height="20" rx="0" fill="#C4A882" opacity="0.3"/>
  <text x="600" y="650" text-anchor="middle" fill="#8A8A85" font-family="monospace" font-size="14" opacity="0.6">That's G — Headless Shopify Storefront</text>
</svg>
